<svg xmlns="http://www.w3.org/2000/svg" width="220" height="217.333" viewBox="0 0 165 163" preserveAspectRatio="xMidYMid meet" xmlns:v="https://vecta.io/nano"><path d="M53.1 42.7c-2.8 3.1-8.1 10.3-11.8 16L34.5 69l-9-.6c-8.3-.6-9.2-.5-10.9 1.4-1 1.2-1.6 2.8-1.3 3.7.9 2.2 2.6 1.8 2-.5-.8-2.9 3.4-4.2 9.9-3 2.9.6 5.6 1.4 6.1 1.9.9.9-18 34-22.6 39.6-1.6 2-3.3 3.3-3.8 3-1.5-1-1-6.7.8-8.7 1.5-1.6 1.5-1.8 0-1.8-2.2 0-3.7 3.1-3.7 7.8s1.9 6.8 4.8 5.3 6-6 17.1-25.1l11-18.2c.3-.4 4.3 0 8.8.9l8.2 1.7-.6 12.1c-.7 14.1.5 21.1 4.4 25 3.2 3.1 6.3 3.3 6.3.5 0-1.2-.6-2-1.2-1.9-3 .4-4-.3-5.5-3.9-3.3-7.6-1.6-29.3 4.2-53.8 4.5-18.9 2.8-22-6.4-11.7zm3.3 13.5c-4 18.1-3.4 17.2-9.8 16.5-3-.3-6.4-1-7.5-1.7-2-1-1.8-1.5 5-11.6C52.7 46.5 58.4 40 58.8 42.3c.2.9-.9 7.2-2.4 13.9zm14.8 14.5c-4.2 7.8-11.7 31.7-10.6 33.5 1.3 2 3.2.2 6.9-6.4C71.3 91 79.3 81 81 81c.4 0 1.1 2.3 1.4 5.2.4 2.8 1.2 6 1.7 7 1.5 2.7 5.9 2.2 10.1-1.2l3.6-3-.5 3.9c-.4 3.1-.1 4.3 1.6 6 5.3 5.3 11.9-.3 11.2-9.4-.2-1.7.9-2.3 6.5-3.8 3.7-.9 6.8-1.6 7-1.4.2.1-.8 3.8-2.1 8-2.7 8.3-3.1 12.2-1.5 13.2.9.6 3.4-2.8 8.3-11.5 1.4-2.5 4.3-6.5 6.6-9 3.3-3.7 4.2-4.2 5.1-3 .5.8 1 2.9 1 4.7 0 5.2 1.9 8.3 5.1 8.3 2.9 0 14.4-8.6 15.6-11.6 1.2-3.3-1-2.4-6 2.3-9.2 8.7-10.9 8.8-12.2.3-1-6.9-1.5-8-3.3-8-2.9 0-6 2.8-11.2 10.2-2.8 3.9-5 6.4-5 5.5 0-.8 1.8-6.2 4-11.8 2.2-5.7 4-10.9 4-11.7 0-2.5-2.1-.1-4.4 5.2-2.1 4.8-2.7 5.3-7.8 6.9-3 .9-7.3 1.7-9.6 1.7-4.7 0-4.6-.1-3.1 5.1 1 3.2.9 4.2-.5 6.4-1.2 1.8-2.4 2.5-3.9 2.3-4.7-.7-2.2-13.6 3.3-17 2.4-1.5 2.6-2.8.5-2.8-.9 0-4.7 3-8.6 6.7-3.9 3.8-7.8 7.2-8.6 7.7-2.2 1.2-4.3-1.8-4.3-6 0-4.8-1.7-8.4-3.8-8.4-2.2 0-9.6 7.5-13.1 13.3-1.3 2.1-2.5 3.6-2.8 3.4-.2-.3 1.6-5.8 4.1-12.3 2.6-6.7 4.1-12.3 3.7-12.7-.5-.5-1.4-.1-1.9 1z"/></svg>