<?xml version="1.0" standalone="no"?>
<!DOCTYPE svg PUBLIC "-//W3C//DTD SVG 20010904//EN"
 "http://www.w3.org/TR/2001/REC-SVG-20010904/DTD/svg10.dtd">
<svg version="1.0" xmlns="http://www.w3.org/2000/svg"
 width="165.000000pt" height="163.000000pt" viewBox="0 0 165.000000 163.000000"
 preserveAspectRatio="xMidYMid meet">

<g transform="translate(0.000000,163.000000) scale(0.100000,-0.100000)"
fill="#000000" stroke="none">
<path d="M531 1203 c-28 -31 -81 -103 -118 -160 l-68 -103 -90 6 c-83 6 -92 5
-109 -14 -10 -12 -16 -28 -13 -37 9 -22 26 -18 20 5 -8 29 34 42 99 30 29 -6
56 -14 61 -19 9 -9 -180 -340 -226 -396 -16 -20 -33 -33 -38 -30 -15 10 -10
67 8 87 15 16 15 18 0 18 -22 0 -37 -31 -37 -78 0 -47 19 -68 48 -53 29 15 60
60 171 251 57 96 106 178 110 182 3 4 43 0 88 -9 l82 -17 -6 -121 c-7 -141 5
-211 44 -250 32 -31 63 -33 63 -5 0 12 -6 20 -12 19 -30 -4 -40 3 -55 39 -33
76 -16 293 42 538 45 189 28 220 -64 117z m33 -135 c-40 -181 -34 -172 -98
-165 -30 3 -64 10 -75 17 -20 10 -18 15 50 116 86 129 143 194 147 171 2 -9
-9 -72 -24 -139z"/>
<path d="M712 923 c-42 -78 -117 -317 -106 -335 13 -20 32 -2 69 64 38 68 118
168 135 168 4 0 11 -23 14 -52 4 -28 12 -60 17 -70 15 -27 59 -22 101 12 l36
30 -5 -39 c-4 -31 -1 -43 16 -60 53 -53 119 3 112 94 -2 17 9 23 65 38 37 9
68 16 70 14 2 -1 -8 -38 -21 -80 -27 -83 -31 -122 -15 -132 9 -6 34 28 83 115
14 25 43 65 66 90 33 37 42 42 51 30 5 -8 10 -29 10 -47 0 -52 19 -83 51 -83
29 0 144 86 156 116 12 33 -10 24 -60 -23 -92 -87 -109 -88 -122 -3 -10 69
-15 80 -33 80 -29 0 -60 -28 -112 -102 -28 -39 -50 -64 -50 -55 0 8 18 62 40
118 22 57 40 109 40 117 0 25 -21 1 -44 -52 -21 -48 -27 -53 -78 -69 -30 -9
-73 -17 -96 -17 -47 0 -46 1 -31 -51 10 -32 9 -42 -5 -64 -12 -18 -24 -25 -39
-23 -47 7 -22 136 33 170 24 15 26 28 5 28 -9 0 -47 -30 -86 -67 -39 -38 -78
-72 -86 -77 -22 -12 -43 18 -43 60 0 48 -17 84 -38 84 -22 0 -96 -75 -131
-133 -13 -21 -25 -36 -28 -34 -2 3 16 58 41 123 26 67 41 123 37 127 -5 5 -14
1 -19 -10z"/>
</g>
</svg>
